<svg width="24" height="24" viewBox="0 0 24 24" fill="none" xmlns="http://www.w3.org/2000/svg">
<path d="M19.928 0C18.8946 0 17.8612 0.401028 17.0591 1.20308L1.44987 16.8123L1.38817 17.1208L0.308483 22.5501L0 24L1.44987 23.6915L6.87918 22.6118L7.18766 22.5501L22.7969 6.94087C24.401 5.33676 24.401 2.8072 22.7969 1.20308C21.9949 0.401028 20.9614 0 19.928 0ZM19.928 1.88175C20.4254 1.88175 20.9267 2.10925 21.4087 2.59126C22.3689 3.55141 22.3689 4.59255 21.4087 5.5527L20.6992 6.23136L17.7686 3.30077L18.4473 2.59126C18.9293 2.10925 19.4306 1.88175 19.928 1.88175ZM16.3805 4.68895L19.3111 7.61954L7.37275 19.5578C6.72494 18.2931 5.70694 17.2751 4.44216 16.6273L16.3805 4.68895ZM3.17738 18.2314C4.36118 18.7095 5.29049 19.6388 5.76864 20.8226L2.52956 21.4704L3.17738 18.2314Z" fill="white"/>
</svg>
